<svg width="40" height="40" viewBox="0 0 40 40" fill="none" xmlns="http://www.w3.org/2000/svg">
<g id="Logo" clipPath="url(#clip0_1984_20988)">
<g id="Group">
<g id="Group 42475">
<path id="Vector" d="M28.5362 5.35286H22.3893C21.452 5.35286 20.7129 4.59576 20.7129 3.67643C20.7129 2.73907 21.47 2 22.3893 2H28.5362C29.4736 2 30.2127 2.7571 30.2127 3.67643C30.2307 4.59576 29.4736 5.35286 28.5362 5.35286Z" fill="#F6000B"/>
<path id="Vector_2" d="M17.6106 5.35286H15.4655C14.5281 5.35286 13.7891 4.59576 13.7891 3.67643C13.7891 2.73907 14.5462 2 15.4655 2H17.6106C18.548 2 19.287 2.7571 19.287 3.67643C19.287 4.59576 18.5299 5.35286 17.6106 5.35286Z" fill="#F6000B"/>
<path id="Vector_3" d="M5.20897 12.763H3.82096C2.8836 12.763 2.14453 12.0059 2.14453 11.0866C2.14453 10.1492 2.90163 9.41016 3.82096 9.41016H5.20897C6.14633 9.41016 6.8854 10.1673 6.8854 11.0866C6.8854 12.0239 6.12831 12.763 5.20897 12.763Z" fill="#009B00"/>
<path id="Vector_4" d="M4.12709 18.3841H1.71158C0.774226 18.3841 0.0351562 17.627 0.0351562 16.7077C0.0351562 15.7703 0.792252 15.0312 1.71158 15.0312H4.12709C5.06445 15.0312 5.80352 15.7883 5.80352 16.7077C5.80352 17.627 5.04642 18.3841 4.12709 18.3841Z" fill="#EAC300"/>
<path id="Vector_5" d="M17.6105 10.4193H11.9323C10.9949 10.4193 10.2559 9.66217 10.2559 8.74283C10.2559 7.80548 11.013 7.06641 11.9323 7.06641H17.6105C18.5479 7.06641 19.2869 7.8235 19.2869 8.74283C19.2869 9.66217 18.5299 10.4193 17.6105 10.4193Z" fill="white"/>
<path id="Vector_6" d="M17.6111 15.7005H9.58951C8.65216 15.7005 7.91309 14.9434 7.91309 14.0241C7.91309 13.0867 8.67018 12.3477 9.58951 12.3477H17.5931C18.5305 12.3477 19.2696 13.1048 19.2696 14.0241C19.2876 14.9434 18.5305 15.7005 17.6111 15.7005Z" fill="#0E41E8"/>
<path id="Vector_7" d="M17.6118 21.2708H8.58073C7.64337 21.2708 6.9043 20.5137 6.9043 19.5944C6.9043 18.657 7.66139 17.918 8.58073 17.918H17.6118C18.5492 17.918 19.2882 18.6751 19.2882 19.5944C19.2882 20.5137 18.5312 21.2708 17.6118 21.2708Z" fill="#F6000B"/>
<path id="Vector_8" d="M34.9896 10.4193H22.3893C21.452 10.4193 20.7129 9.66217 20.7129 8.74283C20.7129 7.80548 21.47 7.06641 22.3893 7.06641H34.9896C35.927 7.06641 36.666 7.8235 36.666 8.74283C36.684 9.66217 35.927 10.4193 34.9896 10.4193Z" fill="#EB9600"/>
<path id="Vector_9" d="M37.4227 15.7005H22.4069C21.4695 15.7005 20.7305 14.9434 20.7305 14.0241C20.7305 13.0867 21.4876 12.3477 22.4069 12.3477H37.4227C38.36 12.3477 39.0991 13.1048 39.0991 14.0241C39.0991 14.9434 38.342 15.7005 37.4227 15.7005Z" fill="#F6000B"/>
<path id="Vector_10" d="M38.324 21.2708H22.4069C21.4695 21.2708 20.7305 20.5137 20.7305 19.5944C20.7305 18.657 21.4876 17.918 22.4069 17.918H38.324C39.2613 17.918 40.0004 18.6751 40.0004 19.5944C40.0004 20.5137 39.2613 21.2708 38.324 21.2708Z" fill="#009B00"/>
<path id="Vector_11" d="M7.91329 7.35197C8.8292 7.35197 9.57169 6.60947 9.57169 5.69356C9.57169 4.77765 8.8292 4.03516 7.91329 4.03516C6.99738 4.03516 6.25488 4.77765 6.25488 5.69356C6.25488 6.60947 6.99738 7.35197 7.91329 7.35197Z" fill="#0E41E8"/>
<path id="Vector_12" d="M28.5167 33.8164H22.3698C21.4324 33.8164 20.6934 34.5735 20.6934 35.4928C20.6934 36.4302 21.4505 37.1693 22.3698 37.1693H28.5167C29.4541 37.1693 30.1931 36.4122 30.1931 35.4928C30.1931 34.5555 29.436 33.8164 28.5167 33.8164Z" fill="white"/>
<path id="Vector_13" d="M17.5754 33.8164H15.4303C14.493 33.8164 13.7539 34.5735 13.7539 35.4928C13.7539 36.4302 14.511 37.1693 15.4303 37.1693H17.5754C18.5128 37.1693 19.2519 36.4122 19.2519 35.4928C19.2519 34.5555 18.4948 33.8164 17.5754 33.8164Z" fill="#F6000B"/>
<path id="Vector_14" d="M5.17382 26.3906H3.7858C2.84844 26.3906 2.10938 27.1477 2.10938 28.0671C2.10938 29.0044 2.86647 29.7435 3.7858 29.7435H5.17382C6.11118 29.7435 6.85025 28.9864 6.85025 28.0671C6.85025 27.1477 6.09315 26.3906 5.17382 26.3906Z" fill="white"/>
<path id="Vector_15" d="M4.09194 20.7852H1.67643C0.739075 20.7852 0 21.5423 0 22.4616C0 23.3989 0.757101 24.138 1.67643 24.138H4.09194C5.02929 24.138 5.76836 23.3809 5.76836 22.4616C5.76836 21.5423 5.01127 20.7852 4.09194 20.7852Z" fill="#3BDBFC"/>
<path id="Vector_16" d="M17.5744 28.75H11.8962C10.9588 28.75 10.2197 29.5071 10.2197 30.4264C10.2197 31.3638 10.9768 32.1029 11.8962 32.1029H17.5744C18.5117 32.1029 19.2508 31.3458 19.2508 30.4264C19.2508 29.5071 18.4937 28.75 17.5744 28.75Z" fill="#009B00"/>
<path id="Vector_17" d="M17.5736 23.4688H9.56998C8.63262 23.4688 7.89355 24.2258 7.89355 25.1452C7.89355 26.0825 8.65065 26.8216 9.56998 26.8216H17.5736C18.5109 26.8216 19.25 26.0645 19.25 25.1452C19.25 24.2078 18.4929 23.4688 17.5736 23.4688Z" fill="white"/>
<path id="Vector_18" d="M34.9701 28.75H22.3698C21.4324 28.75 20.6934 29.5071 20.6934 30.4264C20.6934 31.3638 21.4505 32.1029 22.3698 32.1029H34.9701C35.9074 32.1029 36.6465 31.3458 36.6465 30.4264C36.6465 29.5071 35.8894 28.75 34.9701 28.75Z" fill="#0E41E8"/>
<path id="Vector_19" d="M37.3856 23.4688H22.3698C21.4324 23.4688 20.6934 24.2258 20.6934 25.1452C20.6934 26.0825 21.4505 26.8216 22.3698 26.8216H37.3856C38.3229 26.8216 39.062 26.0645 39.062 25.1452C39.062 24.2078 38.3049 23.4688 37.3856 23.4688Z" fill="#EAC300"/>
<path id="Vector_20" d="M7.87618 35.1137C8.79209 35.1137 9.53459 34.3712 9.53459 33.4553C9.53459 32.5394 8.79209 31.7969 7.87618 31.7969C6.96027 31.7969 6.21777 32.5394 6.21777 33.4553C6.21777 34.3712 6.96027 35.1137 7.87618 35.1137Z" fill="#3BDBFC"/>
</g>
</g>
</g>
<defs>
<clipPath id="clip0_1984_20988">
<rect width="40" height="40" fill="white"/>
</clipPath>
</defs>
</svg>
